PathFileType	4	(X/Y/Z)	Patient4_TMGait_0pt7_01_right_04.trc.trc
DataRate	CameraRate	NumFrames	NumMarkers	Units	OrigDataRate	OrigDataStartFrame	OrigNumFrames
84.337349397590	84.337349397590	5	33	mm	84.337349397590	71	       141
Frame#	Time	Sacral			L.Shoulder			Chest			R.Shoulder			Neck			R.ASIS			L.ASIS			R.Thigh.Superior			R.Thigh.Lateral			R.Thigh.Inferior			R.Patella			L.Thigh.Superior			L.Thigh.Lateral			L.Thigh.Inferior			L.Patella			L.Shank.Superior			L.Shank.Lateral			L.Shank.Inferior			R.Shank.Superior			R.Shank.Lateral			R.Shank.Inferior			R.Heel			R.Midfoot.Superior			R.Midfoot.Lateral			R.Toe			L.Heel			L.Midfoot.Lateral			L.Midfoot.Superior			L.Toe			L.Elbow			L.Wrist			R.Elbow			R.Wrist			
		X1	Y1	Z1	X2	Y2	Z2	X3	Y3	Z3	X4	Y4	Z4	X5	Y5	Z5	X6	Y6	Z6	X7	Y7	Z7	X8	Y8	Z8	X9	Y9	Z9	X10	Y10	Z10	X11	Y11	Z11	X12	Y12	Z12	X13	Y13	Z13	X14	Y14	Z14	X15	Y15	Z15	X16	Y16	Z16	X17	Y17	Z17	X18	Y18	Z18	X19	Y19	Z19	X20	Y20	Z20	X21	Y21	Z21	X22	Y22	Z22	X23	Y23	Z23	X24	Y24	Z24	X25	Y25	Z25	X26	Y26	Z26	X27	Y27	Z27	X28	Y28	Z28	X29	Y29	Z29	X30	Y30	Z30	X31	Y31	Z31	X32	Y32	Z32	X33	Y33	Z33	

71	4.870000000000	678.650156268482	1006.811256449870	563.898530471027	876.180276140614	1425.502946217327	387.757279781632	981.033469816319	1340.492225779658	540.728737191708	914.433273965234	1421.633772428211	718.881027749769	893.597233897812	1481.245622507438	546.070486086361	897.455185254608	933.498355980239	683.818681602312	887.775605757899	945.949937678931	406.658033197823	887.432177689804	722.284613349648	661.192169169308	771.285835002119	634.452956825843	711.586579786873	836.460607990394	564.749137570715	640.584385070510	814.163671240223	482.175377048826	643.842852929812	960.964300899444	775.404431785425	434.289382052440	920.804784821110	646.381951025622	348.150305957942	1028.220848148180	594.026011899997	406.970761994648	1058.039972743600	530.022966767064	402.098731038521	1045.796647670273	456.075613440102	392.217276946316	985.010800979642	323.494475316730	341.779246037552	1078.035843288811	228.900748415231	394.157331730854	774.788715997705	400.577087611433	645.721406243735	685.195985353510	305.662785650678	697.098326597320	725.367288393820	206.936839152235	636.788820557359	583.801177663436	45.148023868095	588.176324907202	753.723087573506	98.195833227115	638.391829367410	661.429097332446	36.596301340703	667.988747434951	869.885185139677	42.098874647418	672.429930586609	1004.047665117936	46.948599057127	433.061734682534	1076.452802796031	54.547747937103	351.731897760630	1144.763150371388	133.875009334826	371.928311971528	1278.865168347321	108.313607151458	343.685236301999	691.998169224098	1132.659489449384	284.243416637062	621.156162423700	882.670654229454	279.119536335398	1045.228976216446	1121.519114874945	844.112448860754	1246.510719489770	1241.071771609343	758.789296780707	
72	4.881857142857	680.157749280138	1005.311815560004	560.923291834286	877.126907163977	1424.035443540687	385.431949968934	981.635583280981	1339.500277228482	538.902938619784	914.118837913941	1420.613617605199	716.782127058730	893.895128736888	1479.988693823287	543.756127007872	898.405407797839	932.014096813010	682.010308772492	890.005728802294	944.227284534475	404.876114580164	887.546055336480	720.650627717515	659.705885989912	770.595088081820	633.605430080358	709.948008566799	835.449888440220	563.232492798747	639.264859773966	812.190583175304	480.479286877588	642.314310508966	962.716030312370	772.521762370108	433.535423798796	921.070832076475	643.124725469632	349.002454390288	1027.800488189956	590.383878867809	408.481022734171	1056.022609026833	525.336653535090	404.658975595035	1043.061880837927	451.071533321368	394.728886649960	980.340214387510	319.392302746545	344.530833181424	1071.101307768242	223.438397725158	398.162582712649	771.766218127072	399.228830171983	644.551016134590	680.721262173797	305.856515675488	696.282595644667	719.157966209264	206.360782174838	636.151267171012	575.527344751667	45.694820067180	588.248269650754	745.579841624645	98.163277234362	638.384855944612	653.139831042318	36.804963795377	668.026678167244	861.600676415710	41.554392521686	672.535884017303	992.738093920895	44.267301224040	436.602066166667	1066.020007343609	50.079856691276	355.884699387787	1136.418761475524	126.846761996487	377.207509463930	1270.002617454468	97.215014698354	349.973385302681	693.101926190407	1131.383467295366	281.784228593409	623.745886211070	880.757028586972	277.194604325057	1044.908150275631	1120.877696593510	843.101227402903	1241.890804844631	1245.861461112426	756.569386647490	
73	4.893714285714	681.736785703137	1003.914155560017	557.703511852916	878.179669194951	1422.660042307958	382.969644268301	982.329733904378	1338.646023623775	536.985956086317	913.824815136722	1419.663361642272	714.611990565519	894.248514815703	1478.837263926177	541.285820152916	899.530690224666	930.550010532825	680.024849996277	892.422255865274	942.639623996996	402.953757789366	887.957750615882	719.046638910435	658.138973166994	770.225976717647	632.748746216583	708.163092716765	834.890283075398	561.711825851518	637.881158133973	810.657100528893	478.703895287258	640.708560368496	964.555729298751	769.513379967434	432.638550164235	921.177568500583	639.941624531632	349.768696626379	1027.159696068028	586.662793533103	410.055444254169	1053.661642499824	520.560511043981	407.319777177175	1039.995605900220	446.096086330775	397.198068698824	975.356923944451	315.369786254579	347.136680722087	1063.724990206232	218.018988810748	402.054231122743	769.101510692167	397.847074153939	643.328308812417	676.475375006928	306.172361531349	695.393038771863	713.102464557914	205.865577078978	635.523971108071	567.291157569398	46.487739107262	588.351088577957	737.495430584638	98.171631526567	638.374506932038	644.883582604256	37.126116389450	668.095914221892	853.335616449346	40.998628354435	672.645380224773	980.764784254593	41.808970722432	439.770834477644	1054.972301214073	45.914350185845	359.717402892734	1127.517305609436	119.903586320864	382.449316246002	1260.540993129740	86.017768055327	356.261670173733	694.902659645794	1129.746249257564	279.115854722716	627.401007208919	878.394016775483	274.968186402920	1043.796266975081	1119.813061056175	842.223263679042	1237.178135656662	1249.212094336504	754.732661060991	
74	4.905571428571	683.351456536677	1002.712956675997	554.301461472510	879.369900445090	1421.445446776047	380.391646951285	983.143874743502	1337.965944445780	534.986400857269	913.622746116196	1418.842387700013	712.376022947891	894.706993534184	1477.859655122940	538.669093560838	900.790386624666	929.161105873232	677.862346284268	894.944245979159	941.287358446087	400.897537721545	888.640455328090	717.539544711038	656.466534663230	770.187624981503	631.932721109384	706.242463427195	834.792428058433	560.248157793133	636.428514601841	809.602726920143	476.888314605416	639.054692492333	966.397723590338	766.536443893782	431.592182508313	921.136584445817	637.032929168074	350.325122868625	1026.299566634066	583.081926508179	411.571850038877	1051.054231400522	515.988409561490	409.890643190354	1036.745931336363	441.442621050785	399.447784823916	970.354119586994	311.665914435229	349.399693251879	1056.280660478191	212.970505083116	405.604909381783	766.807304495783	396.490356437156	642.072025460734	672.488509364536	306.669621282575	694.445134500113	707.241006167826	205.517500778773	634.926423567661	559.115801303260	47.623443967395	588.494156230018	729.521451875305	98.244165253800	638.379983529790	636.678963219960	37.605838821583	668.197137060004	845.101707185231	40.435131502111	672.750906275672	968.740749356880	39.741744983193	442.448418151665	1043.843666205721	42.304603659137	363.047807849000	1118.476262869492	113.462557679794	387.350494524263	1250.915624117797	75.372864714455	362.149512817079	697.415076949757	1127.829366784457	276.235609929881	632.141519557505	875.663920364609	272.425896565960	1041.820853133900	1118.324022535681	841.456690958888	1232.433390960823	1251.111059237243	753.275728122854	
75	4.917428571429	684.966158900577	1001.801287499922	550.789587204630	880.716938696747	1420.466074907375	377.728150654928	984.098769092640	1337.496645101330	532.913641806251	913.584956816299	1418.212998652003	710.080579040677	895.316093586661	1477.125659559000	535.928001145549	902.143172680210	927.913520736813	675.519951689790	897.477353510364	940.274398750184	398.703449748788	889.564509319354	716.207384431630	654.652398633206	770.496749925201	631.215450723577	704.206112506187	835.168981697217	558.911100143397	634.906739764193	809.075196464884	475.079234603805	637.401521975175	968.164548184192	763.792691732898	430.382945130082	921.012450988257	634.610870283418	350.540136253213	1025.263026432650	579.881039106373	412.887311091405	1048.331650739683	511.906602048398	412.162923248475	1033.472058657338	437.370486644647	401.311106227707	965.585999334771	308.505634122986	351.124661713664	1049.054460856233	208.568333751779	408.615829544428	764.900711604430	395.224436049250	640.814881864671	668.799111936647	307.412239169980	693.466784269556	701.621499104176	205.387365246278	634.387923318986	551.028187577282	49.207819714237	588.693774898934	721.716523571192	98.404008524390	638.428064583916	628.546775809095	38.292183141230	668.333302587435	836.911032219120	39.871924913140	672.841422152734	957.137814548753	38.171788481225	444.555554696857	1033.038397533447	39.418804264798	365.742315421596	1109.591468323672	107.868710796258	391.636384415477	1241.448886824790	65.854546549409	367.282493480273	700.642106489916	1125.731549551015	273.149368294452	637.991357753226	872.666172226248	269.556926830640	1038.916691954039	1116.434006022574	840.769178629965	1227.720313283121	1251.533018532142	752.190945490177	
